<svg width="1025" height="1025" version="1.1" xmlns="http://www.w3.org/2000/svg" desc="Created with imagetracer.js version 1.2.6" ><path fill="rgb(0,0,0)" stroke="rgb(0,0,0)" stroke-width="1" opacity="0" d="M 0 0 L 1025 0 L 1025 1025 L 0 1025 L 0 0 Z M 237 102 L 214 106 L 191 114 Q 172 123 157 135 Q 136 152 122 176 L 109 205 L 104 225 L 103 242 L 102 243 L 102 782 L 103 783 L 103 793 L 104 794 L 105 805 L 113 831 Q 125 858 144 878 Q 163 898 191 910 L 210 917 L 236 922 L 790 922 L 816 917 L 833 911 Q 857 900 876 883 Q 896 864 909 838 L 919 810 L 922 794 L 922 785 L 923 784 L 923 241 L 922 240 L 922 231 L 919 215 L 909 187 Q 898 165 883 149 Q 863 127 835 114 L 812 106 L 789 102 L 237 102 Z " /><path fill="rgb(13,11,17)" stroke="rgb(13,11,17)" stroke-width="1" opacity="0.996078431372549" d="M 877.5 143 L 881.5 148 L 877.5 143 Z " /><path fill="rgb(13,11,17)" stroke="rgb(13,11,17)" stroke-width="1" opacity="0.996078431372549" d="M 366.5 250 L 363.5 254 L 366.5 250 Z " /><path fill="rgb(13,11,17)" stroke="rgb(13,11,17)" stroke-width="1" opacity="0.996078431372549" d="M 379.5 250 L 381.5 253 L 379.5 250 Z " /><path fill="rgb(13,11,17)" stroke="rgb(13,11,17)" stroke-width="1" opacity="0.996078431372549" d="M 650.5 250 L 647.5 254 L 650.5 250 Z " /><path fill="rgb(13,11,17)" stroke="rgb(13,11,17)" stroke-width="1" opacity="0.996078431372549" d="M 663.5 250 L 665.5 253 L 663.5 250 Z " /><path fill="rgb(13,11,17)" stroke="rgb(13,11,17)" stroke-width="1" opacity="0.996078431372549" d="M 631.5 266 L 630.5 268 L 631.5 266 Z " /><path fill="rgb(13,11,17)" stroke="rgb(13,11,17)" stroke-width="1" opacity="0.996078431372549" d="M 364.5 267 L 365.5 269 L 364.5 267 Z " /><path fill="rgb(13,11,17)" stroke="rgb(13,11,17)" stroke-width="1" opacity="0.996078431372549" d="M 401.5 268 L 402.5 270 L 401.5 268 Z " /><path fill="rgb(13,11,17)" stroke="rgb(13,11,17)" stroke-width="1" opacity="0.996078431372549" d="M 647.5 268 L 650 268.5 L 647.5 269 L 647.5 268 Z " /><path fill="rgb(13,11,17)" stroke="rgb(13,11,17)" stroke-width="1" opacity="0.996078431372549" d="M 626.5 269 L 625.5 271 L 626.5 269 Z " /><path fill="rgb(13,11,17)" stroke="rgb(13,11,17)" stroke-width="1" opacity="0.996078431372549" d="M 404.5 270 L 405.5 272 L 404.5 270 Z " /><path fill="rgb(13,11,17)" stroke="rgb(13,11,17)" stroke-width="1" opacity="0.996078431372549" d="M 390.5 272 L 391.5 274 L 390.5 272 Z " /><path fill="rgb(13,11,17)" stroke="rgb(13,11,17)" stroke-width="1" opacity="0.996078431372549" d="M 407.5 272 L 409.5 275 L 407.5 272 Z " /><path fill="rgb(13,11,17)" stroke="rgb(13,11,17)" stroke-width="1" opacity="0.996078431372549" d="M 622.5 272 L 621.5 274 L 622.5 272 Z " /><path fill="rgb(13,11,17)" stroke="rgb(13,11,17)" stroke-width="1" opacity="0.996078431372549" d="M 637.5 273 L 636.5 275 L 637.5 273 Z " /><path fill="rgb(13,11,17)" stroke="rgb(13,11,17)" stroke-width="1" opacity="0.996078431372549" d="M 619.5 274 L 616.5 278 L 619.5 274 Z " /><path fill="rgb(13,11,17)" stroke="rgb(13,11,17)" stroke-width="1" opacity="0.996078431372549" d="M 395.5 275 L 396.5 277 L 395.5 275 Z " /><path fill="rgb(13,11,17)" stroke="rgb(13,11,17)" stroke-width="1" opacity="0.996078431372549" d="M 411.5 275 L 414.5 279 L 411.5 275 Z " /><path fill="rgb(13,11,17)" stroke="rgb(13,11,17)" stroke-width="1" opacity="0.996078431372549" d="M 632.5 276 L 631.5 278 L 632.5 276 Z " /><path fill="rgb(13,11,17)" stroke="rgb(13,11,17)" stroke-width="1" opacity="0.996078431372549" d="M 398.5 277 L 399.5 279 L 398.5 277 Z " /><path fill="rgb(13,11,17)" stroke="rgb(13,11,17)" stroke-width="1" opacity="0.996078431372549" d="M 510.5 278 L 519 278.5 L 510.5 279 L 510.5 278 Z " /><path fill="rgb(13,11,17)" stroke="rgb(13,11,17)" stroke-width="1" opacity="0.996078431372549" d="M 629.5 278 L 627.5 281 L 629.5 278 Z " /><path fill="rgb(13,11,17)" stroke="rgb(13,11,17)" stroke-width="1" opacity="0.996078431372549" d="M 401.5 279 L 402.5 281 L 401.5 279 Z " /><path fill="rgb(13,11,17)" stroke="rgb(13,11,17)" stroke-width="1" opacity="0.996078431372549" d="M 496.5 279 L 499 279.5 L 496.5 280 L 496.5 279 Z " /><path fill="rgb(13,11,17)" stroke="rgb(13,11,17)" stroke-width="1" opacity="0.996078431372549" d="M 530.5 279 L 533 279.5 L 530.5 280 L 530.5 279 Z " /><path fill="rgb(13,11,17)" stroke="rgb(13,11,17)" stroke-width="1" opacity="0.996078431372549" d="M 613.5 279 L 603.5 290 L 613.5 279 Z " /><path fill="rgb(13,11,17)" stroke="rgb(13,11,17)" stroke-width="1" opacity="0.996078431372549" d="M 625.5 281 L 623.5 284 L 625.5 281 Z " /><path fill="rgb(13,11,17)" stroke="rgb(13,11,17)" stroke-width="1" opacity="0.996078431372549" d="M 405.5 282 L 408.5 286 L 405.5 282 Z " /><path fill="rgb(13,11,17)" stroke="rgb(13,11,17)" stroke-width="1" opacity="0.996078431372549" d="M 419.5 282 L 423.5 287 L 419.5 282 Z " /><path fill="rgb(13,11,17)" stroke="rgb(13,11,17)" stroke-width="1" opacity="0.996078431372549" d="M 620.5 285 L 609.5 297 L 620.5 285 Z " /><path fill="rgb(13,11,17)" stroke="rgb(13,11,17)" stroke-width="1" opacity="0.996078431372549" d="M 411.5 287 L 417.5 294 L 411.5 287 Z " /><path fill="rgb(13,11,17)" stroke="rgb(13,11,17)" stroke-width="1" opacity="0.996078431372549" d="M 426.5 290 L 430.5 295 L 426.5 290 Z " /><path fill="rgb(13,11,17)" stroke="rgb(13,11,17)" stroke-width="1" opacity="0.996078431372549" d="M 601.5 292 L 598.5 296 L 601.5 292 Z " /><path fill="rgb(13,11,17)" stroke="rgb(13,11,17)" stroke-width="1" opacity="0.996078431372549" d="M 431.5 296 L 434.5 300 L 431.5 296 Z " /><path fill="rgb(13,11,17)" stroke="rgb(13,11,17)" stroke-width="1" opacity="0.996078431372549" d="M 420.5 297 L 423.5 301 L 420.5 297 Z " /><path fill="rgb(13,11,17)" stroke="rgb(13,11,17)" stroke-width="1" opacity="0.996078431372549" d="M 597.5 297 L 595.5 300 L 594 299.5 L 597.5 297 Z " /><path fill="rgb(13,11,17)" stroke="rgb(13,11,17)" stroke-width="1" opacity="0.996078431372549" d="M 607.5 299 L 605.5 302 L 607.5 299 Z " /><path fill="rgb(13,11,17)" stroke="rgb(13,11,17)" stroke-width="1" opacity="0.996078431372549" d="M 424.5 302 L 426 304.5 L 425 304.5 L 424.5 302 Z " /><path fill="rgb(13,11,17)" stroke="rgb(13,11,17)" stroke-width="1" opacity="0.996078431372549" d="M 423.5 305 L 422.5 307 L 423.5 305 Z " /><path fill="rgb(13,11,17)" stroke="rgb(13,11,17)" stroke-width="1" opacity="0.996078431372549" d="M 605.5 305 L 606.5 307 L 605.5 305 Z " /><path fill="rgb(13,11,17)" stroke="rgb(13,11,17)" stroke-width="1" opacity="0.996078431372549" d="M 420.5 307 L 419.5 309 L 420.5 307 Z " /><path fill="rgb(13,11,17)" stroke="rgb(13,11,17)" stroke-width="1" opacity="0.996078431372549" d="M 608.5 307 L 609.5 309 L 608.5 307 Z " /><path fill="rgb(13,11,17)" stroke="rgb(13,11,17)" stroke-width="1" opacity="0.996078431372549" d="M 417.5 309 L 416.5 311 L 417.5 309 Z " /><path fill="rgb(13,11,17)" stroke="rgb(13,11,17)" stroke-width="1" opacity="0.996078431372549" d="M 611.5 309 L 612.5 311 L 611.5 309 Z " /><path fill="rgb(13,11,17)" stroke="rgb(13,11,17)" stroke-width="1" opacity="0.996078431372549" d="M 414.5 311 L 413.5 313 L 414.5 311 Z " /><path fill="rgb(13,11,17)" stroke="rgb(13,11,17)" stroke-width="1" opacity="0.996078431372549" d="M 614.5 311 L 615.5 313 L 614.5 311 Z " /><path fill="rgb(13,11,17)" stroke="rgb(13,11,17)" stroke-width="1" opacity="0.996078431372549" d="M 411.5 313 L 409.5 316 L 411.5 313 Z " /><path fill="rgb(13,11,17)" stroke="rgb(13,11,17)" stroke-width="1" opacity="0.996078431372549" d="M 617.5 313 L 619.5 316 L 617.5 313 Z " /><path fill="rgb(13,11,17)" stroke="rgb(13,11,17)" stroke-width="1" opacity="0.996078431372549" d="M 407.5 316 L 405.5 319 L 407.5 316 Z " /><path fill="rgb(13,11,17)" stroke="rgb(13,11,17)" stroke-width="1" opacity="0.996078431372549" d="M 621.5 316 L 623.5 319 L 621.5 316 Z " /><path fill="rgb(13,11,17)" stroke="rgb(13,11,17)" stroke-width="1" opacity="0.996078431372549" d="M 403.5 319 L 400.5 323 L 403.5 319 Z " /><path fill="rgb(13,11,17)" stroke="rgb(13,11,17)" stroke-width="1" opacity="0.996078431372549" d="M 625.5 319 L 628.5 323 L 625.5 319 Z " /><path fill="rgb(13,11,17)" stroke="rgb(13,11,17)" stroke-width="1" opacity="0.996078431372549" d="M 397.5 324 L 393.5 329 L 397.5 324 Z " /><path fill="rgb(13,11,17)" stroke="rgb(13,11,17)" stroke-width="1" opacity="0.996078431372549" d="M 631.5 324 L 635.5 329 L 631.5 324 Z " /><path fill="rgb(13,11,17)" stroke="rgb(13,11,17)" stroke-width="1" opacity="0.996078431372549" d="M 389.5 331 L 375.5 346 L 389.5 331 Z " /><path fill="rgb(13,11,17)" stroke="rgb(13,11,17)" stroke-width="1" opacity="0.996078431372549" d="M 639.5 331 L 654.5 347 L 639.5 331 Z " /><path fill="rgb(13,11,17)" stroke="rgb(13,11,17)" stroke-width="1" opacity="0.996078431372549" d="M 372.5 349 L 367.5 355 L 372.5 349 Z " /><path fill="rgb(13,11,17)" stroke="rgb(13,11,17)" stroke-width="1" opacity="0.996078431372549" d="M 657.5 350 L 661.5 355 L 657.5 350 Z " /><path fill="rgb(13,11,17)" stroke="rgb(13,11,17)" stroke-width="1" opacity="0.996078431372549" d="M 365.5 357 L 363.5 360 L 365.5 357 Z " /><path fill="rgb(13,11,17)" stroke="rgb(13,11,17)" stroke-width="1" opacity="0.996078431372549" d="M 663.5 357 L 665.5 360 L 663.5 357 Z " /><path fill="rgb(13,11,17)" stroke="rgb(13,11,17)" stroke-width="1" opacity="0.996078431372549" d="M 361.5 362 L 359.5 365 L 361.5 362 Z " /><path fill="rgb(13,11,17)" stroke="rgb(13,11,17)" stroke-width="1" opacity="0.996078431372549" d="M 667.5 362 L 669.5 365 L 667.5 362 Z " /><path fill="rgb(13,11,17)" stroke="rgb(13,11,17)" stroke-width="1" opacity="0.996078431372549" d="M 358.5 366 L 356.5 369 L 358.5 366 Z " /><path fill="rgb(13,11,17)" stroke="rgb(13,11,17)" stroke-width="1" opacity="0.996078431372549" d="M 670.5 366 L 672.5 369 L 670.5 366 Z " /><path fill="rgb(13,11,17)" stroke="rgb(13,11,17)" stroke-width="1" opacity="0.996078431372549" d="M 447.5 367 L 581.5 367 Q 592 369.5 598 376.5 Q 606.7 384.3 605 402.5 Q 602.3 412.1 597 418 L 587.5 424 L 580.5 426 L 448.5 426 Q 435.1 423.4 429 413.5 L 424 402.5 L 424 390.5 Q 426.3 380.8 432.5 375 Q 438.2 369.2 447.5 367 Z M 496 392 L 496 401 L 505 401 L 505 392 L 496 392 Z M 524 392 L 524 401 L 533 401 L 533 392 L 524 392 Z M 507 400 L 505 402 L 505 410 L 524 410 L 524 402 L 523 400 Q 516 398 515 401 Q 513 398 507 400 Z " /><path fill="rgb(13,11,17)" stroke="rgb(13,11,17)" stroke-width="1" opacity="0.996078431372549" d="M 355.5 370 L 354.5 372 L 355.5 370 Z " /><path fill="rgb(13,11,17)" stroke="rgb(13,11,17)" stroke-width="1" opacity="0.996078431372549" d="M 673.5 370 L 674.5 372 L 673.5 370 Z " /><path fill="rgb(13,11,17)" stroke="rgb(13,11,17)" stroke-width="1" opacity="0.996078431372549" d="M 352.5 374 L 351.5 376 L 352.5 374 Z " /><path fill="rgb(13,11,17)" stroke="rgb(13,11,17)" stroke-width="1" opacity="0.996078431372549" d="M 676.5 374 L 677.5 376 L 676.5 374 Z " /><path fill="rgb(13,11,17)" stroke="rgb(13,11,17)" stroke-width="1" opacity="0.996078431372549" d="M 350.5 377 L 349.5 379 L 350.5 377 Z " /><path fill="rgb(13,11,17)" stroke="rgb(13,11,17)" stroke-width="1" opacity="0.996078431372549" d="M 678.5 377 L 679.5 379 L 678.5 377 Z " /><path fill="rgb(13,11,17)" stroke="rgb(13,11,17)" stroke-width="1" opacity="0.996078431372549" d="M 348.5 380 L 347.5 382 L 348.5 380 Z " /><path fill="rgb(13,11,17)" stroke="rgb(13,11,17)" stroke-width="1" opacity="0.996078431372549" d="M 680.5 380 L 681.5 382 L 680.5 380 Z " /><path fill="rgb(13,11,17)" stroke="rgb(13,11,17)" stroke-width="1" opacity="0.996078431372549" d="M 346.5 383 L 345.5 385 L 346.5 383 Z " /><path fill="rgb(13,11,17)" stroke="rgb(13,11,17)" stroke-width="1" opacity="0.996078431372549" d="M 682.5 383 L 683.5 385 L 682.5 383 Z " /><path fill="rgb(13,11,17)" stroke="rgb(13,11,17)" stroke-width="1" opacity="0.996078431372549" d="M 343.5 388 L 342.5 390 L 343.5 388 Z " /><path fill="rgb(13,11,17)" stroke="rgb(13,11,17)" stroke-width="1" opacity="0.996078431372549" d="M 691.5 398 L 692.5 400 L 691.5 398 Z " /><path fill="rgb(13,11,17)" stroke="rgb(13,11,17)" stroke-width="1" opacity="0.996078431372549" d="M 309 467 L 720 467.5 L 310.5 468 L 309.5 469 L 309 467 Z " /><path fill="rgb(13,11,17)" stroke="rgb(13,11,17)" stroke-width="1" opacity="0.996078431372549" d="M 725.5 497 L 727 500.5 L 725 499.5 L 725.5 497 Z " /><path fill="rgb(13,11,17)" stroke="rgb(13,11,17)" stroke-width="1" opacity="0.996078431372549" d="M 260.5 500 L 263 500.5 L 260.5 501 L 260.5 500 Z " /><path fill="rgb(13,11,17)" stroke="rgb(13,11,17)" stroke-width="1" opacity="0.996078431372549" d="M 776.5 500 L 779 500.5 L 776.5 501 L 776.5 500 Z " /><path fill="rgb(13,11,17)" stroke="rgb(13,11,17)" stroke-width="1" opacity="0.996078431372549" d="M 255.5 502 L 252.5 506 L 255.5 502 Z " /><path fill="rgb(13,11,17)" stroke="rgb(13,11,17)" stroke-width="1" opacity="0.996078431372549" d="M 783.5 502 L 786.5 506 L 783.5 502 Z " /><path fill="rgb(13,11,17)" stroke="rgb(13,11,17)" stroke-width="1" opacity="0.996078431372549" d="M 271.5 504 L 273.5 507 L 271.5 504 Z " /><path fill="rgb(13,11,17)" stroke="rgb(13,11,17)" stroke-width="1" opacity="0.996078431372549" d="M 767.5 504 L 765.5 507 L 767.5 504 Z " /><path fill="rgb(13,11,17)" stroke="rgb(13,11,17)" stroke-width="1" opacity="0.996078431372549" d="M 763.5 508 L 761.5 511 L 763.5 508 Z " /><path fill="rgb(13,11,17)" stroke="rgb(13,11,17)" stroke-width="1" opacity="0.996078431372549" d="M 276.5 509 L 277.5 511 L 276.5 509 Z " /><path fill="rgb(13,11,17)" stroke="rgb(13,11,17)" stroke-width="1" opacity="0.996078431372549" d="M 278.5 512 L 279.5 514 L 278.5 512 Z " /><path fill="rgb(13,11,17)" stroke="rgb(13,11,17)" stroke-width="1" opacity="0.996078431372549" d="M 760.5 512 L 759.5 514 L 760.5 512 Z " /><path fill="rgb(13,11,17)" stroke="rgb(13,11,17)" stroke-width="1" opacity="0.996078431372549" d="M 242.5 532 L 243 536.5 L 242 536.5 L 242.5 532 Z " /><path fill="rgb(13,11,17)" stroke="rgb(13,11,17)" stroke-width="1" opacity="0.996078431372549" d="M 796.5 532 L 797 536.5 L 796 536.5 L 796.5 532 Z " /><path fill="rgb(13,11,17)" stroke="rgb(13,11,17)" stroke-width="1" opacity="0.996078431372549" d="M 239.5 572 L 240 574.5 L 239 574.5 L 239.5 572 Z " /><path fill="rgb(13,11,17)" stroke="rgb(13,11,17)" stroke-width="1" opacity="0.996078431372549" d="M 799.5 572 L 800 574.5 L 799 574.5 L 799.5 572 Z " /><path fill="rgb(13,11,17)" stroke="rgb(13,11,17)" stroke-width="1" opacity="0.996078431372549" d="M 239.5 587 L 240 589.5 L 239 589.5 L 239.5 587 Z " /><path fill="rgb(13,11,17)" stroke="rgb(13,11,17)" stroke-width="1" opacity="0.996078431372549" d="M 799.5 587 L 800 590.5 L 799 590.5 L 799.5 587 Z " /><path fill="rgb(13,11,17)" stroke="rgb(13,11,17)" stroke-width="1" opacity="0.996078431372549" d="M 245.5 611 L 250 619.5 L 248 618.5 L 245.5 611 Z " /><path fill="rgb(13,11,17)" stroke="rgb(13,11,17)" stroke-width="1" opacity="0.996078431372549" d="M 793.5 611 L 794 612.5 L 789.5 620 L 790 618.5 L 793.5 611 Z " /><path fill="rgb(13,11,17)" stroke="rgb(13,11,17)" stroke-width="1" opacity="0.996078431372549" d="M 250.5 621 L 251.5 623 L 250.5 621 Z " /><path fill="rgb(13,11,17)" stroke="rgb(13,11,17)" stroke-width="1" opacity="0.996078431372549" d="M 788.5 621 L 787.5 623 L 788.5 621 Z " /><path fill="rgb(13,11,17)" stroke="rgb(13,11,17)" stroke-width="1" opacity="0.996078431372549" d="M 252.5 624 L 253.5 626 L 252.5 624 Z " /><path fill="rgb(13,11,17)" stroke="rgb(13,11,17)" stroke-width="1" opacity="0.996078431372549" d="M 786.5 624 L 785.5 626 L 786.5 624 Z " /><path fill="rgb(13,11,17)" stroke="rgb(13,11,17)" stroke-width="1" opacity="0.996078431372549" d="M 254.5 627 L 256.5 630 L 254.5 627 Z " /><path fill="rgb(13,11,17)" stroke="rgb(13,11,17)" stroke-width="1" opacity="0.996078431372549" d="M 784.5 627 L 782.5 630 L 784.5 627 Z " /><path fill="rgb(13,11,17)" stroke="rgb(13,11,17)" stroke-width="1" opacity="0.996078431372549" d="M 258.5 632 L 263.5 638 L 258.5 632 Z " /><path fill="rgb(13,11,17)" stroke="rgb(13,11,17)" stroke-width="1" opacity="0.996078431372549" d="M 780.5 632 L 775.5 638 L 780.5 632 Z " /><path fill="rgb(13,11,17)" stroke="rgb(13,11,17)" stroke-width="1" opacity="0.996078431372549" d="M 266.5 639 L 269.5 643 L 266.5 639 Z " /><path fill="rgb(13,11,17)" stroke="rgb(13,11,17)" stroke-width="1" opacity="0.996078431372549" d="M 771.5 640 L 769.5 643 L 771.5 640 Z " /><path fill="rgb(13,11,17)" stroke="rgb(13,11,17)" stroke-width="1" opacity="0.996078431372549" d="M 271.5 643 L 272.5 645 L 271.5 643 Z " /><path fill="rgb(13,11,17)" stroke="rgb(13,11,17)" stroke-width="1" opacity="0.996078431372549" d="M 767.5 643 L 766.5 645 L 767.5 643 Z " /><path fill="rgb(13,11,17)" stroke="rgb(13,11,17)" stroke-width="1" opacity="0.996078431372549" d="M 274.5 645 L 275.5 647 L 274.5 645 Z " /><path fill="rgb(13,11,17)" stroke="rgb(13,11,17)" stroke-width="1" opacity="0.996078431372549" d="M 764.5 645 L 763.5 647 L 764.5 645 Z " /><path fill="rgb(13,11,17)" stroke="rgb(13,11,17)" stroke-width="1" opacity="0.996078431372549" d="M 684.5 646 L 685.5 648 L 684.5 646 Z " /><path fill="rgb(13,11,17)" stroke="rgb(13,11,17)" stroke-width="1" opacity="0.996078431372549" d="M 352.5 650 L 357.5 656 L 352.5 650 Z " /><path fill="rgb(13,11,17)" stroke="rgb(13,11,17)" stroke-width="1" opacity="0.996078431372549" d="M 676.5 650 L 671.5 656 L 676.5 650 Z " /><path fill="rgb(13,11,17)" stroke="rgb(13,11,17)" stroke-width="1" opacity="0.996078431372549" d="M 331.5 655 L 334 655.5 L 331.5 656 L 331.5 655 Z " /><path fill="rgb(13,11,17)" stroke="rgb(13,11,17)" stroke-width="1" opacity="0.996078431372549" d="M 705.5 655 L 708 655.5 L 705.5 656 L 705.5 655 Z " /><path fill="rgb(13,11,17)" stroke="rgb(13,11,17)" stroke-width="1" opacity="0.996078431372549" d="M 302.5 656 L 305 656.5 L 302.5 657 L 302.5 656 Z " /><path fill="rgb(13,11,17)" stroke="rgb(13,11,17)" stroke-width="1" opacity="0.996078431372549" d="M 325.5 656 L 329 656.5 L 325.5 657 L 325.5 656 Z " /><path fill="rgb(13,11,17)" stroke="rgb(13,11,17)" stroke-width="1" opacity="0.996078431372549" d="M 710.5 656 L 714 656.5 L 710.5 657 L 710.5 656 Z " /><path fill="rgb(13,11,17)" stroke="rgb(13,11,17)" stroke-width="1" opacity="0.996078431372549" d="M 734.5 656 L 737 656.5 L 734.5 657 L 734.5 656 Z " /><path fill="rgb(13,11,17)" stroke="rgb(13,11,17)" stroke-width="1" opacity="0.996078431372549" d="M 311.5 657 L 320 657.5 L 311.5 658 L 311.5 657 Z " /><path fill="rgb(13,11,17)" stroke="rgb(13,11,17)" stroke-width="1" opacity="0.996078431372549" d="M 360.5 657 L 362.5 660 L 360.5 657 Z " /><path fill="rgb(13,11,17)" stroke="rgb(13,11,17)" stroke-width="1" opacity="0.996078431372549" d="M 668.5 657 L 666.5 660 L 668.5 657 Z " /><path fill="rgb(13,11,17)" stroke="rgb(13,11,17)" stroke-width="1" opacity="0.996078431372549" d="M 719.5 657 L 728 657.5 L 719.5 658 L 719.5 657 Z " /><path fill="rgb(13,11,17)" stroke="rgb(13,11,17)" stroke-width="1" opacity="0.996078431372549" d="M 364.5 660 L 366.5 663 L 364.5 660 Z " /><path fill="rgb(13,11,17)" stroke="rgb(13,11,17)" stroke-width="1" opacity="0.996078431372549" d="M 664.5 660 L 662.5 663 L 664.5 660 Z " /><path fill="rgb(13,11,17)" stroke="rgb(13,11,17)" stroke-width="1" opacity="0.996078431372549" d="M 368.5 663 L 369.5 665 L 368.5 663 Z " /><path fill="rgb(13,11,17)" stroke="rgb(13,11,17)" stroke-width="1" opacity="0.996078431372549" d="M 660.5 663 L 659.5 665 L 660.5 663 Z " /><path fill="rgb(13,11,17)" stroke="rgb(13,11,17)" stroke-width="1" opacity="0.996078431372549" d="M 371.5 665 L 372.5 667 L 371.5 665 Z " /><path fill="rgb(13,11,17)" stroke="rgb(13,11,17)" stroke-width="1" opacity="0.996078431372549" d="M 657.5 665 L 656.5 667 L 657.5 665 Z " /><path fill="rgb(13,11,17)" stroke="rgb(13,11,17)" stroke-width="1" opacity="0.996078431372549" d="M 374.5 667 L 375.5 669 L 374.5 667 Z " /><path fill="rgb(13,11,17)" stroke="rgb(13,11,17)" stroke-width="1" opacity="0.996078431372549" d="M 654.5 667 L 653.5 669 L 654.5 667 Z " /><path fill="rgb(13,11,17)" stroke="rgb(13,11,17)" stroke-width="1" opacity="0.996078431372549" d="M 377.5 669 L 378.5 671 L 377.5 669 Z " /><path fill="rgb(13,11,17)" stroke="rgb(13,11,17)" stroke-width="1" opacity="0.996078431372549" d="M 651.5 669 L 650.5 671 L 651.5 669 Z " /><path fill="rgb(13,11,17)" stroke="rgb(13,11,17)" stroke-width="1" opacity="0.996078431372549" d="M 382.5 672 L 383.5 674 L 382.5 672 Z " /><path fill="rgb(13,11,17)" stroke="rgb(13,11,17)" stroke-width="1" opacity="0.996078431372549" d="M 646.5 672 L 645.5 674 L 646.5 672 Z " /><path fill="rgb(13,11,17)" stroke="rgb(13,11,17)" stroke-width="1" opacity="0.996078431372549" d="M 457.5 699 L 460 699.5 L 457.5 700 L 457.5 699 Z " /><path fill="rgb(13,11,17)" stroke="rgb(13,11,17)" stroke-width="1" opacity="0.996078431372549" d="M 569.5 699 L 572 699.5 L 569.5 700 L 569.5 699 Z " /><path fill="rgb(13,11,17)" stroke="rgb(13,11,17)" stroke-width="1" opacity="0.996078431372549" d="M 463.5 700 L 466 700.5 L 463.5 701 L 463.5 700 Z " /><path fill="rgb(13,11,17)" stroke="rgb(13,11,17)" stroke-width="1" opacity="0.996078431372549" d="M 563.5 700 L 566 700.5 L 563.5 701 L 563.5 700 Z " /><path fill="rgb(13,11,17)" stroke="rgb(13,11,17)" stroke-width="1" opacity="0.996078431372549" d="M 470.5 701 L 473 701.5 L 470.5 702 L 470.5 701 Z " /><path fill="rgb(13,11,17)" stroke="rgb(13,11,17)" stroke-width="1" opacity="0.996078431372549" d="M 556.5 701 L 560 701.5 L 556.5 702 L 556.5 701 Z " /><path fill="rgb(13,11,17)" stroke="rgb(13,11,17)" stroke-width="1" opacity="0.996078431372549" d="M 478.5 702 L 482 702.5 L 478.5 703 L 478.5 702 Z " /><path fill="rgb(13,11,17)" stroke="rgb(13,11,17)" stroke-width="1" opacity="0.996078431372549" d="M 547.5 702 L 551 702.5 L 547.5 703 L 547.5 702 Z " /><path fill="rgb(13,11,17)" stroke="rgb(13,11,17)" stroke-width="1" opacity="0.996078431372549" d="M 488.5 703 L 496 703.5 L 488.5 704 L 488.5 703 Z " /><path fill="rgb(13,11,17)" stroke="rgb(13,11,17)" stroke-width="1" opacity="0.996078431372549" d="M 533.5 703 L 541 703.5 L 533.5 704 L 533.5 703 Z " /><path fill="rgb(13,11,17)" stroke="rgb(13,11,17)" stroke-width="1" opacity="0.996078431372549" d="M 498.5 732 L 561.5 733 L 562.5 734 L 575.5 734 L 576.5 735 L 602.5 737 L 624.5 741 L 645.5 747 Q 654.8 749.8 660 756.5 L 661 762.5 L 655.5 769 L 648.5 773 L 633.5 778 L 595.5 785 L 577.5 786 L 576.5 787 L 564.5 787 L 563.5 788 L 543.5 788 L 542.5 789 L 496.5 789 L 495.5 788 L 475.5 788 L 474.5 787 L 451.5 786 L 450.5 785 L 435.5 784 L 413.5 780 L 392.5 774 L 382.5 769 L 378 764.5 L 377 759.5 L 381.5 753 L 392.5 747 L 423.5 739 L 442.5 737 L 443.5 736 L 451.5 736 L 452.5 735 L 461.5 735 L 462.5 734 L 497.5 733 L 498.5 732 Z " /><path fill="rgb(13,11,17)" stroke="rgb(13,11,17)" stroke-width="1" opacity="0.996078431372549" d="M 882.5 875 L 876.5 882 L 882.5 875 Z " /><path fill="rgb(13,11,17)" stroke="rgb(13,11,17)" stroke-width="1" opacity="0.996078431372549" d="M 144.5 877 L 146.5 880 L 144.5 877 Z " /><path fill="rgb(12,11,16)" stroke="rgb(12,11,16)" stroke-width="1" opacity="1" d="M 236.5 102 L 238.5 103 L 239.5 102 L 785.5 102 L 787.5 102 L 795.5 104 L 797.5 104 Q 803.5 103 805.5 106 L 807.5 105 L 818.5 108 L 820.5 110 L 821.5 109 L 825.5 111 L 846.5 120 L 865 132.5 Q 864.3 134.8 866.5 134 L 877 142 L 881.5 148 Q 883.8 147.3 883 149.5 L 886 154 L 888 154 L 888 156 Q 890.7 154.9 890 157.5 L 896 164.5 L 896 167 L 898 167 L 898 170 Q 900.7 168.9 900 171.5 L 904 177.5 L 904 180 Q 906.7 178.9 906 181.5 L 909 186.5 L 909 188.5 L 914 198.5 L 914 200.5 L 916 204.5 Q 913.5 206 917 207.5 Q 916.3 213.2 919 215.5 L 919 217.5 L 922 233.5 L 922 235.5 L 923 240.5 L 923 783.5 L 922 784.5 L 922 793.5 L 919 809.5 L 913 824.5 L 913 826.5 L 906 844 Q 903 842.8 904 846.5 L 902 851 Q 899.3 849.9 900 852.5 L 892.5 864 Q 890.3 863.3 891 865.5 L 876 881.5 L 876 883 L 870 886 L 870 888 L 868 888 Q 869.1 890.7 866.5 890 L 853.5 900 L 849 901 Q 850.3 904 846.5 903 L 832.5 911 L 830.5 911 L 827.5 913 L 826.5 912 L 822.5 914 L 818.5 916 Q 817 913.5 815.5 917 L 789.5 922 L 235.5 922 Q 234 919.5 228.5 921 L 224.5 919 L 222.5 920 L 209.5 917 L 204.5 914 L 203.5 915 L 199.5 913 L 178.5 904 L 164 895 Q 165.3 892 161.5 893 L 160 890 L 156.5 889 L 147 881 L 129 859.5 L 129 857 L 127 857 L 127 854 Q 124.3 855.1 125 852.5 L 113 830.5 L 113 828.5 L 110 822.5 Q 112.5 821 109 819.5 L 105 803.5 L 105 801.5 L 103 789.5 L 103 787.5 Q 104.3 782.8 102 781.5 L 102 242.5 L 104 235.5 L 103 231.5 L 105 227.5 L 104 224.5 L 109 204.5 L 114 194.5 Q 111.5 193 115 191.5 L 122 175 Q 125 176.3 124 172.5 Q 136.4 151.9 154.5 137 L 157.5 135 L 161 133 Q 159.9 130.3 162.5 131 L 170.5 125 L 173 125 Q 171.9 122.3 174.5 123 L 178 122 Q 176.9 119.3 179.5 120 L 190.5 114 Q 192 116.5 193.5 113 L 217.5 105 L 219.5 106 L 222.5 104 Q 227.3 105.2 228.5 103 L 230.5 103 Q 235.2 104.3 236.5 102 Z M 369 249 L 367 250 L 362 256 Q 360 264 364 268 L 370 271 Q 378 273 381 268 Q 397 275 410 286 Q 420 294 425 305 Q 405 315 390 331 Q 335 381 311 461 L 718 461 Q 698 393 655 347 Q 633 321 604 305 L 608 299 Q 623 280 647 269 Q 652 268 654 271 L 663 270 L 668 264 Q 669 256 666 253 L 662 249 Q 654 248 651 250 Q 646 252 646 259 Q 628 267 614 279 L 596 299 L 571 288 L 555 283 L 533 279 L 520 279 L 519 278 L 497 279 L 475 283 Q 452 289 435 299 L 424 287 Q 408 268 384 260 L 382 253 Q 379 247 369 249 Z M 309 467 L 305 486 L 303 503 L 280 513 L 278 511 Q 273 503 263 500 L 256 502 L 247 514 L 244 522 L 242 533 Q 242 542 246 548 L 241 562 L 239 573 L 239 590 L 242 605 Q 247 621 258 633 Q 270 646 288 653 L 298 656 L 311 657 L 312 658 L 334 656 L 351 649 Q 376 674 414 688 L 448 698 L 471 702 L 478 702 L 479 703 L 488 703 L 489 704 L 541 704 L 542 703 L 551 703 L 552 702 L 560 702 L 567 700 L 572 700 L 598 694 Q 649 679 682 646 L 706 656 L 719 657 L 720 658 L 737 657 L 752 653 Q 765 647 776 638 L 791 619 L 797 605 L 800 591 Q 802 565 793 550 L 797 537 L 795 522 L 787 506 Q 784 501 779 500 L 768 504 L 760 513 Q 746 505 728 501 L 725 497 L 724 486 L 720 471 L 720 467 L 309 467 Z M 499 732 L 498 733 L 463 734 L 462 735 L 453 735 L 452 736 L 444 736 L 443 737 L 424 739 L 393 747 L 382 753 L 377 760 L 378 765 L 383 769 L 393 774 L 414 780 L 436 784 L 451 785 L 452 786 L 475 787 L 476 788 L 496 788 L 497 789 L 543 789 L 544 788 L 564 788 L 565 787 L 577 787 L 578 786 L 596 785 L 634 778 L 649 773 L 656 769 L 661 763 L 660 757 Q 655 750 646 747 L 625 741 L 603 737 L 577 735 L 576 734 L 563 734 L 562 733 L 499 732 Z " /><path fill="rgb(231,78,81)" stroke="rgb(231,78,81)" stroke-width="1" opacity="1" d="M 496 392 L 505 392 L 505 400.5 L 506.5 400 Q 512.7 398.3 514.5 401 Q 516.2 398.3 522.5 400 L 524 400.5 L 524 392 L 533 392 L 533 401 L 524 401 L 524 410 L 505 410 L 505 401 L 496 401 L 496 392 Z " /><path fill="rgb(231,78,81)" stroke="rgb(231,78,81)" stroke-width="1" opacity="1" d="M 519.5 488 L 533 533.5 Q 537 542.5 544.5 548 L 580.5 565 L 583 565 Q 584.3 568 580.5 567 L 547.5 582 L 537 591.5 L 533 598.5 L 519.5 644 L 517 639.5 L 505 597.5 L 497.5 587 L 486.5 580 L 456 567 Q 454.9 564.3 457.5 565 L 490.5 550 L 502 539.5 L 505 534.5 L 516 495.5 L 519.5 488 Z " /><path fill="rgb(231,78,81)" stroke="rgb(231,78,81)" stroke-width="1" opacity="1" d="M 334.5 497 Q 377.7 494.8 395 518.5 Q 406 532.5 405 558.5 L 404 559.5 L 403 571.5 L 399 586 L 267 525 L 270.5 520 L 281.5 513 L 304.5 503 L 319.5 499 L 333.5 498 L 334.5 497 Z " /><path fill="rgb(231,78,81)" stroke="rgb(231,78,81)" stroke-width="1" opacity="1" d="M 687.5 497 L 713.5 498 L 730.5 502 Q 756.2 508.8 773 524.5 L 642.5 586 L 640 586 L 635 565.5 L 634 547.5 L 635 546.5 L 636 535.5 L 642 521.5 L 654.5 508 L 668.5 501 L 687.5 497 Z " /><path fill="rgb(231,78,81)" stroke="rgb(231,78,81)" stroke-width="1" opacity="1" d="M 259.5 501 Q 265.7 500.3 268 503.5 L 243.5 534 L 243 530.5 L 248 513.5 L 254 504 L 259.5 501 Z " /><path fill="rgb(231,78,81)" stroke="rgb(231,78,81)" stroke-width="1" opacity="1" d="M 775.5 501 L 779.5 501 L 785 504 Q 793.9 514.4 796 532.5 L 794 531.5 L 772 503.5 L 775.5 501 Z " /><path fill="rgb(220,35,51)" stroke="rgb(220,35,51)" stroke-width="1" opacity="1" d="M 371.5 249 Q 378 249.3 381 252 L 384.5 261 Q 412.3 271.7 429 293.5 L 433.5 300 L 455.5 290 L 482.5 282 L 487.5 282 L 494.5 280 L 504.5 280 L 505.5 279 L 523.5 279 L 524.5 280 L 534.5 280 L 535.5 281 L 546.5 282 L 558.5 285 L 578.5 292 L 593.5 300 L 597 300 L 600 294.5 L 611.5 282 Q 626.3 268.3 646 259.5 Q 646.6 253.6 650.5 251 L 658.5 249 L 665 252 L 667 255.5 L 667 263.5 L 662.5 269 L 653.5 270 Q 651.8 267.2 646.5 268 Q 621.9 279.4 606 299.5 L 603 304.5 Q 629.3 320.7 650 342.5 Q 695.2 389.3 717 459.5 L 312.5 460 L 313 458.5 Q 335.8 382.8 386.5 335 Q 404.5 317.5 427 304.5 Q 419 292 407.5 283 Q 395.9 273.1 380.5 267 Q 378 271.5 369.5 270 L 363 264.5 L 362 258.5 L 366.5 251 L 371.5 249 Z M 447 367 L 436 372 L 428 380 L 423 394 L 424 405 L 429 415 Q 435 423 447 426 L 583 426 L 594 421 Q 604 414 606 400 Q 606 387 601 380 Q 595 370 583 367 L 447 367 Z " /><path fill="rgb(220,35,51)" stroke="rgb(220,35,51)" stroke-width="1" opacity="1" d="M 310 468 L 718.5 468 L 719 469.5 L 723 484.5 L 725 500.5 L 723.5 500 L 713.5 498 L 705.5 498 L 704.5 497 L 687.5 497 L 668.5 501 L 655.5 508 L 656.5 506 L 658 505.5 L 525.5 505 L 524 503.5 L 519.5 488 L 516 495.5 L 514 505 L 381 505.5 L 384 507.5 L 382.5 507 Q 365.2 495.3 334.5 497 L 333.5 498 L 319.5 499 L 304 503 L 306 484.5 L 310 468 Z " /><path fill="rgb(220,35,51)" stroke="rgb(220,35,51)" stroke-width="1" opacity="1" d="M 771.5 503 L 794 530.5 Q 797 532.5 796 538.5 L 794.5 543 L 766 506 L 771.5 503 Z " /><path fill="rgb(220,35,51)" stroke="rgb(220,35,51)" stroke-width="1" opacity="1" d="M 267 504 L 269.5 504 L 274 507.5 L 246 543 Q 242.3 544.4 244 538.5 L 243 534.5 L 267 504 Z " /><path fill="rgb(220,35,51)" stroke="rgb(220,35,51)" stroke-width="1" opacity="1" d="M 385.5 508 L 397 520.5 L 395 519.5 L 385.5 508 Z " /><path fill="rgb(220,35,51)" stroke="rgb(220,35,51)" stroke-width="1" opacity="1" d="M 653.5 508 L 644 518.5 L 642.5 521 L 643 519.5 L 653.5 508 Z " /><path fill="rgb(220,35,51)" stroke="rgb(220,35,51)" stroke-width="1" opacity="1" d="M 275.5 516 L 274.5 518 L 275.5 516 Z " /><path fill="rgb(220,35,51)" stroke="rgb(220,35,51)" stroke-width="1" opacity="1" d="M 763.5 516 L 764.5 518 L 763.5 516 Z " /><path fill="rgb(220,35,51)" stroke="rgb(220,35,51)" stroke-width="1" opacity="1" d="M 272.5 518 L 271.5 520 L 272.5 518 Z " /><path fill="rgb(220,35,51)" stroke="rgb(220,35,51)" stroke-width="1" opacity="1" d="M 766.5 518 L 767.5 520 L 766.5 518 Z " /><path fill="rgb(220,35,51)" stroke="rgb(220,35,51)" stroke-width="1" opacity="1" d="M 269.5 520 L 267 523.5 Q 266.3 525.8 268.5 525 L 399 586 Q 392.9 606.2 380.5 621 L 375.5 620 L 347.5 607 L 244 557.5 L 250 541.5 L 263.5 525 L 269.5 520 Z " /><path fill="rgb(220,35,51)" stroke="rgb(220,35,51)" stroke-width="1" opacity="1" d="M 770.5 521 L 780 529 L 791 545.5 L 795 555.5 L 795 559 L 659.5 622 Q 646.3 607 640 586 L 642.5 586 L 773 524.5 L 770.5 521 Z " /><path fill="rgb(220,35,51)" stroke="rgb(220,35,51)" stroke-width="1" opacity="1" d="M 397.5 522 L 401 528.5 L 400 528.5 L 397.5 522 Z " /><path fill="rgb(220,35,51)" stroke="rgb(220,35,51)" stroke-width="1" opacity="1" d="M 641.5 522 L 641 523.5 L 638.5 529 L 638 527.5 L 641.5 522 Z " /><path fill="rgb(220,35,51)" stroke="rgb(220,35,51)" stroke-width="1" opacity="1" d="M 404.5 542 L 405 545.5 L 404 545.5 L 404.5 542 Z " /><path fill="rgb(220,35,51)" stroke="rgb(220,35,51)" stroke-width="1" opacity="1" d="M 634.5 542 L 635 546.5 L 634 546.5 L 634.5 542 Z " /><path fill="rgb(220,35,51)" stroke="rgb(220,35,51)" stroke-width="1" opacity="1" d="M 404.5 559 L 405 563.5 L 404 563.5 L 404.5 559 Z " /><path fill="rgb(220,35,51)" stroke="rgb(220,35,51)" stroke-width="1" opacity="1" d="M 634.5 559 L 635 563.5 L 634 563.5 L 634.5 559 Z " /><path fill="rgb(220,35,51)" stroke="rgb(220,35,51)" stroke-width="1" opacity="1" d="M 403.5 566 L 404 569.5 L 403 569.5 L 403.5 566 Z " /><path fill="rgb(220,35,51)" stroke="rgb(220,35,51)" stroke-width="1" opacity="1" d="M 635.5 566 L 636 569.5 L 635 569.5 L 635.5 566 Z " /><path fill="rgb(192,33,57)" stroke="rgb(192,33,57)" stroke-width="1" opacity="1" d="M 378.5 250 L 379.5 252 L 378.5 250 Z " /><path fill="rgb(192,33,57)" stroke="rgb(192,33,57)" stroke-width="1" opacity="1" d="M 662.5 250 L 663.5 252 L 662.5 250 Z " /><path fill="rgb(192,33,57)" stroke="rgb(192,33,57)" stroke-width="1" opacity="1" d="M 665.5 253 L 666.5 255 L 665.5 253 Z " /><path fill="rgb(192,33,57)" stroke="rgb(192,33,57)" stroke-width="1" opacity="1" d="M 667.5 257 L 668 261.5 L 667 261.5 L 667.5 257 Z " /><path fill="rgb(192,33,57)" stroke="rgb(192,33,57)" stroke-width="1" opacity="1" d="M 363.5 265 L 366.5 269 L 363.5 265 Z " /><path fill="rgb(192,33,57)" stroke="rgb(192,33,57)" stroke-width="1" opacity="1" d="M 665.5 266 L 663.5 269 L 665.5 266 Z " /><path fill="rgb(192,33,57)" stroke="rgb(192,33,57)" stroke-width="1" opacity="1" d="M 370.5 270 L 375 270.5 L 370.5 271 L 370.5 270 Z " /><path fill="rgb(192,33,57)" stroke="rgb(192,33,57)" stroke-width="1" opacity="1" d="M 655.5 270 L 659 270.5 L 655.5 271 L 655.5 270 Z " /><path fill="rgb(192,33,57)" stroke="rgb(192,33,57)" stroke-width="1" opacity="1" d="M 624.5 271 L 623.5 273 L 624.5 271 Z " /><path fill="rgb(192,33,57)" stroke="rgb(192,33,57)" stroke-width="1" opacity="1" d="M 620.5 274 L 619.5 276 L 620.5 274 Z " /><path fill="rgb(192,33,57)" stroke="rgb(192,33,57)" stroke-width="1" opacity="1" d="M 410.5 275 L 411.5 277 L 410.5 275 Z " /><path fill="rgb(192,33,57)" stroke="rgb(192,33,57)" stroke-width="1" opacity="1" d="M 615.5 278 L 612.5 282 L 615.5 278 Z " /><path fill="rgb(192,33,57)" stroke="rgb(192,33,57)" stroke-width="1" opacity="1" d="M 415.5 279 L 425.5 290 L 415.5 279 Z " /><path fill="rgb(192,33,57)" stroke="rgb(192,33,57)" stroke-width="1" opacity="1" d="M 499.5 279 L 504 279.5 L 499.5 280 L 499.5 279 Z " /><path fill="rgb(192,33,57)" stroke="rgb(192,33,57)" stroke-width="1" opacity="1" d="M 525.5 279 L 530 279.5 L 525.5 280 L 525.5 279 Z " /><path fill="rgb(192,33,57)" stroke="rgb(192,33,57)" stroke-width="1" opacity="1" d="M 627.5 279 L 626.5 281 L 627.5 279 Z " /><path fill="rgb(192,33,57)" stroke="rgb(192,33,57)" stroke-width="1" opacity="1" d="M 403.5 280 L 404.5 282 L 403.5 280 Z " /><path fill="rgb(192,33,57)" stroke="rgb(192,33,57)" stroke-width="1" opacity="1" d="M 491.5 280 L 494 280.5 L 491.5 281 L 491.5 280 Z " /><path fill="rgb(192,33,57)" stroke="rgb(192,33,57)" stroke-width="1" opacity="1" d="M 535.5 280 L 538 280.5 L 535.5 281 L 535.5 280 Z " /><path fill="rgb(192,33,57)" stroke="rgb(192,33,57)" stroke-width="1" opacity="1" d="M 622.5 283 L 621.5 285 L 622.5 283 Z " /><path fill="rgb(192,33,57)" stroke="rgb(192,33,57)" stroke-width="1" opacity="1" d="M 408.5 284 L 410.5 287 L 408.5 284 Z " /><path fill="rgb(192,33,57)" stroke="rgb(192,33,57)" stroke-width="1" opacity="1" d="M 605.5 288 L 602.5 292 L 605.5 288 Z " /><path fill="rgb(192,33,57)" stroke="rgb(192,33,57)" stroke-width="1" opacity="1" d="M 418.5 294 L 421.5 298 L 418.5 294 Z " /><path fill="rgb(192,33,57)" stroke="rgb(192,33,57)" stroke-width="1" opacity="1" d="M 429.5 294 L 430.5 296 L 429.5 294 Z " /><path fill="rgb(192,33,57)" stroke="rgb(192,33,57)" stroke-width="1" opacity="1" d="M 599.5 295 L 598.5 297 L 599.5 295 Z " /><path fill="rgb(192,33,57)" stroke="rgb(192,33,57)" stroke-width="1" opacity="1" d="M 608.5 297 L 607.5 299 L 608.5 297 Z " /><path fill="rgb(192,33,57)" stroke="rgb(192,33,57)" stroke-width="1" opacity="1" d="M 424.5 301 L 425.5 303 L 424.5 301 Z " /><path fill="rgb(192,33,57)" stroke="rgb(192,33,57)" stroke-width="1" opacity="1" d="M 604.5 302 L 603.5 304 L 604.5 302 Z " /><path fill="rgb(192,33,57)" stroke="rgb(192,33,57)" stroke-width="1" opacity="1" d="M 412.5 313 L 411.5 315 L 412.5 313 Z " /><path fill="rgb(192,33,57)" stroke="rgb(192,33,57)" stroke-width="1" opacity="1" d="M 404.5 319 L 403.5 321 L 404.5 319 Z " /><path fill="rgb(192,33,57)" stroke="rgb(192,33,57)" stroke-width="1" opacity="1" d="M 624.5 319 L 625.5 321 L 624.5 319 Z " /><path fill="rgb(192,33,57)" stroke="rgb(192,33,57)" stroke-width="1" opacity="1" d="M 399.5 323 L 397.5 326 L 399.5 323 Z " /><path fill="rgb(192,33,57)" stroke="rgb(192,33,57)" stroke-width="1" opacity="1" d="M 629.5 323 L 630.5 325 L 629.5 323 Z " /><path fill="rgb(192,33,57)" stroke="rgb(192,33,57)" stroke-width="1" opacity="1" d="M 392.5 329 L 387.5 335 L 392.5 329 Z " /><path fill="rgb(192,33,57)" stroke="rgb(192,33,57)" stroke-width="1" opacity="1" d="M 636.5 329 L 640.5 334 L 636.5 329 Z " /><path fill="rgb(192,33,57)" stroke="rgb(192,33,57)" stroke-width="1" opacity="1" d="M 378.5 343 L 373.5 349 L 378.5 343 Z " /><path fill="rgb(192,33,57)" stroke="rgb(192,33,57)" stroke-width="1" opacity="1" d="M 651.5 344 L 656.5 350 L 651.5 344 Z " /><path fill="rgb(192,33,57)" stroke="rgb(192,33,57)" stroke-width="1" opacity="1" d="M 368.5 354 L 366.5 357 L 368.5 354 Z " /><path fill="rgb(192,33,57)" stroke="rgb(192,33,57)" stroke-width="1" opacity="1" d="M 660.5 354 L 662.5 357 L 660.5 354 Z " /><path fill="rgb(192,33,57)" stroke="rgb(192,33,57)" stroke-width="1" opacity="1" d="M 363.5 360 L 362.5 362 L 363.5 360 Z " /><path fill="rgb(192,33,57)" stroke="rgb(192,33,57)" stroke-width="1" opacity="1" d="M 665.5 360 L 666.5 362 L 665.5 360 Z " /><path fill="rgb(192,33,57)" stroke="rgb(192,33,57)" stroke-width="1" opacity="1" d="M 360.5 364 L 359.5 366 L 360.5 364 Z " /><path fill="rgb(192,33,57)" stroke="rgb(192,33,57)" stroke-width="1" opacity="1" d="M 668.5 364 L 669.5 366 L 668.5 364 Z " /><path fill="rgb(192,33,57)" stroke="rgb(192,33,57)" stroke-width="1" opacity="1" d="M 354.5 372 L 353.5 374 L 354.5 372 Z " /><path fill="rgb(192,33,57)" stroke="rgb(192,33,57)" stroke-width="1" opacity="1" d="M 435.5 372 L 433.5 375 L 435.5 372 Z " /><path fill="rgb(192,33,57)" stroke="rgb(192,33,57)" stroke-width="1" opacity="1" d="M 593.5 372 L 594.5 374 L 593.5 372 Z " /><path fill="rgb(192,33,57)" stroke="rgb(192,33,57)" stroke-width="1" opacity="1" d="M 674.5 372 L 675.5 374 L 674.5 372 Z " /><path fill="rgb(192,33,57)" stroke="rgb(192,33,57)" stroke-width="1" opacity="1" d="M 430.5 377 L 429.5 379 L 430.5 377 Z " /><path fill="rgb(192,33,57)" stroke="rgb(192,33,57)" stroke-width="1" opacity="1" d="M 598.5 377 L 599.5 379 L 598.5 377 Z " /><path fill="rgb(192,33,57)" stroke="rgb(192,33,57)" stroke-width="1" opacity="1" d="M 684.5 387 L 685.5 389 L 684.5 387 Z " /><path fill="rgb(192,33,57)" stroke="rgb(192,33,57)" stroke-width="1" opacity="1" d="M 605.5 393 L 606 399.5 L 605 399.5 L 605.5 393 Z " /><path fill="rgb(192,33,57)" stroke="rgb(192,33,57)" stroke-width="1" opacity="1" d="M 423.5 394 L 424 398.5 L 423 398.5 L 423.5 394 Z " /><path fill="rgb(192,33,57)" stroke="rgb(192,33,57)" stroke-width="1" opacity="1" d="M 337.5 399 L 336.5 401 L 337.5 399 Z " /><path fill="rgb(192,33,57)" stroke="rgb(192,33,57)" stroke-width="1" opacity="1" d="M 691.5 399 L 692.5 401 L 691.5 399 Z " /><path fill="rgb(192,33,57)" stroke="rgb(192,33,57)" stroke-width="1" opacity="1" d="M 427.5 411 L 428.5 413 L 427.5 411 Z " /><path fill="rgb(192,33,57)" stroke="rgb(192,33,57)" stroke-width="1" opacity="1" d="M 601.5 411 L 600.5 413 L 601.5 411 Z " /><path fill="rgb(192,33,57)" stroke="rgb(192,33,57)" stroke-width="1" opacity="1" d="M 429.5 414 L 435.5 421 L 429.5 414 Z " /><path fill="rgb(192,33,57)" stroke="rgb(192,33,57)" stroke-width="1" opacity="1" d="M 599.5 414 L 597.5 417 L 599.5 414 Z " /><path fill="rgb(192,33,57)" stroke="rgb(192,33,57)" stroke-width="1" opacity="1" d="M 595.5 418 L 593.5 421 L 595.5 418 Z " /><path fill="rgb(192,33,57)" stroke="rgb(192,33,57)" stroke-width="1" opacity="1" d="M 437.5 421 L 438.5 423 L 437.5 421 Z " /><path fill="rgb(192,33,57)" stroke="rgb(192,33,57)" stroke-width="1" opacity="1" d="M 591.5 421 L 590.5 423 L 591.5 421 Z " /><path fill="rgb(192,33,57)" stroke="rgb(192,33,57)" stroke-width="1" opacity="1" d="M 312.5 460 L 717 460.5 L 312.5 461 L 312.5 460 Z " /><path fill="rgb(192,33,57)" stroke="rgb(192,33,57)" stroke-width="1" opacity="1" d="M 305.5 487 L 306 489.5 L 305 489.5 L 305.5 487 Z " /><path fill="rgb(192,33,57)" stroke="rgb(192,33,57)" stroke-width="1" opacity="1" d="M 723.5 487 L 724 489.5 L 723 489.5 L 723.5 487 Z " /><path fill="rgb(192,33,57)" stroke="rgb(192,33,57)" stroke-width="1" opacity="1" d="M 304.5 493 L 305 495.5 L 304 495.5 L 304.5 493 Z " /><path fill="rgb(192,33,57)" stroke="rgb(192,33,57)" stroke-width="1" opacity="1" d="M 724.5 493 L 725 495.5 L 724 495.5 L 724.5 493 Z " /><path fill="rgb(192,33,57)" stroke="rgb(192,33,57)" stroke-width="1" opacity="1" d="M 303.5 500 L 304 502.5 L 303 502.5 L 303.5 500 Z " /><path fill="rgb(192,33,57)" stroke="rgb(192,33,57)" stroke-width="1" opacity="1" d="M 270.5 504 L 271.5 506 L 270.5 504 Z " /><path fill="rgb(192,33,57)" stroke="rgb(192,33,57)" stroke-width="1" opacity="1" d="M 768.5 504 L 767.5 506 L 768.5 504 Z " /><path fill="rgb(192,33,57)" stroke="rgb(192,33,57)" stroke-width="1" opacity="1" d="M 274.5 507 L 275.5 509 L 274.5 507 Z " /><path fill="rgb(192,33,57)" stroke="rgb(192,33,57)" stroke-width="1" opacity="1" d="M 276.5 510 L 279 513.5 L 271.5 518 L 276 512.5 L 276.5 510 Z " /><path fill="rgb(192,33,57)" stroke="rgb(192,33,57)" stroke-width="1" opacity="1" d="M 762.5 510 L 771 520.5 L 768.5 519 L 760 513.5 L 762.5 510 Z " /><path fill="rgb(192,33,57)" stroke="rgb(192,33,57)" stroke-width="1" opacity="1" d="M 243.5 527 L 244 529.5 L 243 529.5 L 243.5 527 Z " /><path fill="rgb(192,33,57)" stroke="rgb(192,33,57)" stroke-width="1" opacity="1" d="M 795.5 527 L 796 529.5 L 795 529.5 L 795.5 527 Z " /><path fill="rgb(192,33,57)" stroke="rgb(192,33,57)" stroke-width="1" opacity="1" d="M 240.5 568 L 241 570.5 L 240 570.5 L 240.5 568 Z " /><path fill="rgb(192,33,57)" stroke="rgb(192,33,57)" stroke-width="1" opacity="1" d="M 798.5 568 L 799 570.5 L 798 570.5 L 798.5 568 Z " /><path fill="rgb(192,33,57)" stroke="rgb(192,33,57)" stroke-width="1" opacity="1" d="M 239.5 575 L 240 584.5 L 241.5 586 L 350.5 637 L 361.5 641 L 375 629.5 L 381.5 621 L 511.5 621 L 512 623.5 L 519.5 644 L 526 622.5 L 527.5 621 L 657.5 621 L 660 623.5 L 671.5 637 L 678.5 642 L 799 586 L 799.5 575 L 800 586.5 L 797 602.5 L 789 620.5 Q 782.3 631.8 772.5 640 Q 760.5 650 743.5 655 L 733.5 657 L 714.5 657 L 697.5 653 L 682.5 645 Q 650.9 676.9 602.5 692 L 579.5 698 L 556.5 701 L 555.5 702 L 533.5 703 L 532.5 704 L 496.5 704 L 495.5 703 L 482.5 703 L 481.5 702 L 473.5 702 L 472.5 701 L 454.5 699 L 417.5 689 L 384.5 674 L 349.5 649 Q 333.5 659 305.5 657 Q 273.7 651.3 257 630.5 Q 247.3 618.7 242 602.5 L 239 586.5 L 239.5 575 Z " /><path fill="rgb(202,32,54)" stroke="rgb(202,32,54)" stroke-width="1" opacity="1" d="M 383.5 259 L 384.5 261 L 383.5 259 Z " /><path fill="rgb(202,32,54)" stroke="rgb(202,32,54)" stroke-width="1" opacity="1" d="M 253.5 505 L 252.5 507 L 253.5 505 Z " /><path fill="rgb(202,32,54)" stroke="rgb(202,32,54)" stroke-width="1" opacity="1" d="M 381.5 505 L 512.5 505 L 513 507.5 L 506 531.5 Q 502.2 542.2 493.5 548 L 456 565 Q 454.9 567.7 457.5 567 L 492.5 583 L 499 588.5 L 505 597.5 L 512 620.5 L 381.5 621 L 379 623.5 L 367.5 637 L 359.5 641 L 240 584.5 L 240 571.5 L 243 558 L 375.5 620 L 380.5 621 Q 394 604.5 401 581.5 L 405 563.5 L 405 542.5 L 399 523.5 Q 394.1 513.9 385.5 508 Q 380.8 507.2 381.5 505 Z " /><path fill="rgb(202,32,54)" stroke="rgb(202,32,54)" stroke-width="1" opacity="1" d="M 525 505 L 658 505.5 Q 648.5 510 643 518.5 Q 631.5 534 634 563.5 Q 640.1 599.4 659.5 622 L 795.5 558 L 799 571.5 L 799 586 L 678.5 642 L 664 629.5 L 657.5 621 L 527.5 621 L 526.5 622 L 527 620.5 L 533 598.5 Q 537 589.5 544.5 584 L 580.5 567 L 583 567 Q 584.3 564 580.5 565 L 546.5 549 L 537 540.5 L 532 530.5 L 525 505 Z " /><path fill="rgb(202,32,54)" stroke="rgb(202,32,54)" stroke-width="1" opacity="1" d="M 765.5 507 L 794 541.5 L 794 544.5 L 793 547 Q 790.3 548.1 791 545.5 L 780 529 L 771 521.5 L 770.5 520 Q 769.3 522.3 768 519.5 L 769 517.5 L 763 509.5 L 765.5 507 Z " /><path fill="rgb(202,32,54)" stroke="rgb(202,32,54)" stroke-width="1" opacity="1" d="M 273.5 508 L 276 509.5 L 276 512.5 L 271 517.5 Q 273.3 518.8 270.5 520 L 259 529.5 L 250 541.5 L 248 547 Q 245.3 548.1 246 545.5 L 245 543.5 L 273.5 508 Z " /></svg>